<?xml version="1.0" encoding="UTF-8" standalone="no"?>
<!-- Created with Inkscape (http://www.inkscape.org/) -->

<svg
   xmlns:dc="http://purl.org/dc/elements/1.1/"
   xmlns:cc="http://creativecommons.org/ns#"
   xmlns:rdf="http://www.w3.org/1999/02/22-rdf-syntax-ns#"
   xmlns:svg="http://www.w3.org/2000/svg"
   xmlns="http://www.w3.org/2000/svg"
   xmlns:sodipodi="http://sodipodi.sourceforge.net/DTD/sodipodi-0.dtd"
   xmlns:inkscape="http://www.inkscape.org/namespaces/inkscape"
   width="20"
   height="20"
   viewBox="0 0 5.2916665 5.2916668"
   version="1.1"
   id="svg8"
   inkscape:version="0.92.3 (2405546, 2018-03-11)"
   sodipodi:docname="dragonsdrop.svg"
   inkscape:export-filename="C:\Users\Valentin\Documents\QtProjects\DragonsDrop\res\dragonsdrop16.png"
   inkscape:export-xdpi="76.800003"
   inkscape:export-ydpi="76.800003"
   enable-background="new">
  <title
     id="title817">Dragon's Drop Logo</title>
  <defs
     id="defs2">
    <filter
       inkscape:collect="always"
       style="color-interpolation-filters:sRGB"
       id="filter836">
      <feBlend
         inkscape:collect="always"
         mode="multiply"
         in2="BackgroundImage"
         id="feBlend838" />
    </filter>
  </defs>
  <sodipodi:namedview
     id="base"
     pagecolor="#ffffff"
     bordercolor="#666666"
     borderopacity="1.0"
     inkscape:pageopacity="0.0"
     inkscape:pageshadow="2"
     inkscape:zoom="45.254834"
     inkscape:cx="8.2025393"
     inkscape:cy="10.297215"
     inkscape:document-units="mm"
     inkscape:current-layer="layer1"
     showgrid="true"
     units="px"
     inkscape:snap-bbox="true"
     inkscape:bbox-paths="true"
     inkscape:bbox-nodes="true"
     inkscape:snap-bbox-edge-midpoints="true"
     inkscape:snap-bbox-midpoints="true"
     inkscape:object-paths="true"
     inkscape:snap-intersection-paths="true"
     inkscape:snap-smooth-nodes="true"
     inkscape:snap-midpoints="true"
     inkscape:snap-object-midpoints="true"
     inkscape:snap-center="true"
     inkscape:snap-text-baseline="true"
     inkscape:window-width="1920"
     inkscape:window-height="1001"
     inkscape:window-x="-9"
     inkscape:window-y="-9"
     inkscape:window-maximized="1"
     inkscape:snap-global="false">
    <inkscape:grid
       type="xygrid"
       id="grid815" />
  </sodipodi:namedview>
  <metadata
     id="metadata5">
    <rdf:RDF>
      <cc:Work
         rdf:about="">
        <dc:format>image/svg+xml</dc:format>
        <dc:type
           rdf:resource="http://purl.org/dc/dcmitype/StillImage" />
        <dc:title>Dragon's Drop Logo</dc:title>
      </cc:Work>
    </rdf:RDF>
  </metadata>
  <g
     inkscape:label="Dragon"
     inkscape:groupmode="layer"
     id="layer1"
     transform="translate(0,-291.70832)"
     sodipodi:insensitive="true">
    <path
       style="fill:#c22f32;fill-opacity:1;fill-rule:evenodd;stroke:none;stroke-width:0.09999999;stroke-linecap:butt;stroke-linejoin:miter;stroke-miterlimit:4;stroke-dasharray:none;stroke-opacity:1"
       d="M 13.916016,0.7890625 C 12.560076,2.6122688 12.235543,4.5635556 12.216797,6.6152344 10.057175,6.6621383 8.7578837,7.2248681 7.1347656,7.59375 6.8928963,7.5593563 6.7352273,7.5192601 6.5644531,7.4179688 6.1806145,7.1589955 4.9191764,8.2854086 4.5117188,8.2871094 4.3124432,8.5109708 4.2420052,8.7531969 4.1777344,9 4.1372897,9.1553386 4.2929688,9.2675781 4.2929688,9.2675781 4.2987405,9.703471 3.2799467,9.8764458 1.7597656,10.392578 1.3396265,10.535217 1.3878441,9.7084055 1.421875,9.3125 1.0429604,9.7983205 1.0562244,10.468167 1.0410156,10.71875 c -0.021536,0.354935 -0.00465,0.370387 0.1386719,0.628906 L 4.3085938,10.75 c 1.3832934,-0.309619 3.597179,-0.711679 3.1386718,-1.7382812 0,0 3.2827854,-1.0889695 5.1816404,-0.7597657 3.584163,0.6213852 3.367653,4.9516369 1.91211,6.9824219 -0.745066,1.039522 -2.714792,2.150493 -5.1425785,1.689453 C 7.8022903,16.620717 6.5959791,15.357574 6.8496094,13.314453 7.1031308,11.272209 9.217144,10.552233 11.314453,11.412109 9.168554,9.7002854 6.3397804,10.808711 5.96875,13.355469 c -0.3689123,2.532219 0.8222888,4.794659 3.9472656,5.044922 2.4047554,0.192584 4.6028834,-0.644805 6.0273434,-2.591797 1.299549,-1.776259 1.615472,-4.546018 0.84961,-6.6093752 -0.464782,-1.2521953 -2.522795,-2.3558844 -3.720703,-2.5546876 -0.153359,-1.3043149 0.0044,-2.7686173 0.80664,-4.4667968 2.193323,1.6019149 2.376022,3.4559053 2.890625,4.6992187 -0.0437,-0.00873 0.133502,-3.2550598 -2.107422,-5.0917969 2.342153,0.5406615 3.164003,2.1320841 5.179688,4.1445313 -1.46231,-2.7649134 -2.918511,-4.3797683 -5.925781,-5.140625 z M 5.7583103,8.1914063 C 5.6152441,8.4153646 5.639685,8.5690104 5.4199219,8.7929687 L 4.9160156,9.0507812 C 5.0133521,8.4998398 5.4068011,8.612982 5.7583103,8.1914063 Z"
       transform="matrix(0.26458333,0,0,0.26458333,0,291.70832)"
       id="path819"
       inkscape:connector-curvature="0"
       sodipodi:nodetypes="cccccccccccccsssscsssscccccccccc" />
  </g>
  <g
     inkscape:groupmode="layer"
     id="layer5"
     inkscape:label="Tail"
     style="opacity:0.98999999;filter:url(#filter836)"
     sodipodi:insensitive="true">
    <path
       style="fill:#c22f32;fill-opacity:0.97909408;fill-rule:evenodd;stroke:none;stroke-width:0.02645833;stroke-linecap:butt;stroke-linejoin:miter;stroke-miterlimit:4;stroke-dasharray:none;stroke-opacity:1"
       d="M 3.0314212,3.0027536 C 3.0819948,2.7853737 3.2272759,2.8760336 3.4523706,2.7542767 3.2743244,2.9728034 3.2499581,2.8253517 3.0314212,3.0027536 Z"
       id="path840"
       inkscape:connector-curvature="0"
       sodipodi:nodetypes="ccc" />
    <path
       sodipodi:nodetypes="ccc"
       inkscape:connector-curvature="0"
       id="path842"
       d="M 3.051884,3.0378328 C 3.219388,2.8643018 3.3705156,2.9841943 3.6014569,2.8332048 3.4234107,3.0985036 3.293807,2.9422821 3.051884,3.0378328 Z"
       style="fill:#c22f32;fill-opacity:0.97909408;fill-rule:evenodd;stroke:none;stroke-width:0.02645833;stroke-linecap:butt;stroke-linejoin:miter;stroke-miterlimit:4;stroke-dasharray:none;stroke-opacity:1" />
    <path
       style="fill:#c22f32;fill-opacity:0.97909408;fill-rule:evenodd;stroke:none;stroke-width:0.02645833;stroke-linecap:butt;stroke-linejoin:miter;stroke-miterlimit:4;stroke-dasharray:none;stroke-opacity:1"
       d="M 3.0518841,3.0612188 C 3.2953928,2.9578461 3.4699065,3.0718923 3.6833082,2.9676751 3.4964922,3.2037413 3.3435025,3.0796757 3.0518841,3.0612188 Z"
       id="path844"
       inkscape:connector-curvature="0"
       sodipodi:nodetypes="ccc" />
    <path
       sodipodi:nodetypes="ccc"
       inkscape:connector-curvature="0"
       id="path846"
       d="M 3.0489609,3.0904515 C 3.4152464,3.0923115 3.452367,3.2531345 3.680385,3.1898425 3.4994154,3.3849834 3.3551955,3.2141456 3.0489609,3.0904515 Z"
       style="fill:#c22f32;fill-opacity:0.97909408;fill-rule:evenodd;stroke:none;stroke-width:0.02645833;stroke-linecap:butt;stroke-linejoin:miter;stroke-miterlimit:4;stroke-dasharray:none;stroke-opacity:1" />
    <path
       style="fill:#c22f32;fill-opacity:0.97909408;fill-rule:evenodd;stroke:none;stroke-width:0.02645833;stroke-linecap:butt;stroke-linejoin:miter;stroke-miterlimit:4;stroke-dasharray:none;stroke-opacity:1"
       d="M 2.9788027,3.0875283 C 3.3509348,3.2121694 3.2652784,3.3671417 3.522529,3.4295502 3.2860175,3.5136068 3.2294953,3.3515389 2.9788027,3.0875283 Z"
       id="path848"
       inkscape:connector-curvature="0"
       sodipodi:nodetypes="ccc" />
    <path
       sodipodi:nodetypes="ccc"
       inkscape:connector-curvature="0"
       id="path850"
       d="M 2.9385255,3.0954419 C 3.1390919,3.2655582 3.0162284,3.3626529 3.1577238,3.4912073 2.946017,3.4367711 2.9887135,3.3470502 2.9385255,3.0954419 Z"
       style="fill:#c22f32;fill-opacity:0.97909408;fill-rule:evenodd;stroke:none;stroke-width:0.02645833;stroke-linecap:butt;stroke-linejoin:miter;stroke-miterlimit:4;stroke-dasharray:none;stroke-opacity:1" />
  </g>
  <g
     inkscape:groupmode="layer"
     id="layer4"
     inkscape:label="Wings"
     sodipodi:insensitive="true"
     style="display:inline">
    <path
       transform="translate(0,-291.70831)"
       style="fill:#c22f32;fill-opacity:0.70588235;fill-rule:evenodd;stroke:none;stroke-width:0.02645833;stroke-linecap:butt;stroke-linejoin:miter;stroke-miterlimit:4;stroke-dasharray:none;stroke-opacity:1"
       d="m 3.6950012,292.37832 c -0.1706351,0.46707 -0.2038188,0.7649 -0.1929351,1.0319 0.3690213,0.0732 0.4345946,-0.19228 0.8331291,0 -0.1375938,-0.37402 -0.3255773,-0.79642 -0.640194,-1.0319 z"
       id="path831"
       inkscape:connector-curvature="0"
       sodipodi:nodetypes="cccc" />
    <path
       transform="translate(0,-291.70831)"
       sodipodi:nodetypes="cccc"
       inkscape:connector-curvature="0"
       id="path833"
       d="m 4.0253296,292.27016 c 0.3535161,0.2946 0.5043758,0.94322 0.458952,1.21022 0.4362563,0.009 0.2533524,-0.20398 0.6898893,-0.20171 -0.274987,-0.29509 -0.7319105,-0.88411 -1.1488413,-1.00851 z"
       style="fill:#c22f32;fill-opacity:0.70588235;fill-rule:evenodd;stroke:none;stroke-width:0.02645833;stroke-linecap:butt;stroke-linejoin:miter;stroke-miterlimit:4;stroke-dasharray:none;stroke-opacity:1" />
  </g>
  <g
     inkscape:groupmode="layer"
     id="layer2"
     inkscape:label="Scales"
     sodipodi:insensitive="true"
     style="display:inline">
    <path
       transform="translate(0,-291.70831)"
       style="fill:#c22f34;fill-opacity:1;fill-rule:evenodd;stroke:none;stroke-width:0.26458332px;stroke-linecap:butt;stroke-linejoin:miter;stroke-opacity:1"
       d="m 1.9223633,293.68384 c 0.068902,-0.0256 0.1378038,-0.0472 0.2067057,-0.0591 -0.019323,-0.0712 0.073546,-0.10989 0.1122115,-0.22738 -0.1323923,0.14315 -0.2740586,0.17178 -0.3189172,0.28648 z"
       id="path825"
       inkscape:connector-curvature="0"
       sodipodi:nodetypes="cccc" />
    <path
       transform="translate(0,-291.70831)"
       sodipodi:nodetypes="cccc"
       inkscape:connector-curvature="0"
       id="path827"
       d="m 2.1503776,293.61953 c 0.056684,-0.0195 0.1237991,-0.0329 0.2183987,-0.0576 0.00991,-0.0668 0.1071635,-0.088 0.1355976,-0.19668 -0.1601632,0.14461 -0.2784435,0.14839 -0.3539963,0.25432 z"
       style="fill:#c22f34;fill-opacity:1;fill-rule:evenodd;stroke:none;stroke-width:0.26458332px;stroke-linecap:butt;stroke-linejoin:miter;stroke-opacity:1" />
    <path
       transform="translate(0,-291.70831)"
       style="fill:#c22f34;fill-opacity:1;fill-rule:evenodd;stroke:none;stroke-width:0.26458332px;stroke-linecap:butt;stroke-linejoin:miter;stroke-opacity:1"
       d="m 2.4353955,293.55083 c 0.056684,-0.0195 0.1237991,-0.0329 0.2183987,-0.0576 0.011372,-0.0639 0.075008,-0.0632 0.1312127,-0.17329 -0.2025505,0.16215 -0.2755202,0.14546 -0.3496114,0.23093 z"
       id="path829"
       inkscape:connector-curvature="0"
       sodipodi:nodetypes="ccccc" />
  </g>
  <g
     inkscape:groupmode="layer"
     id="layer3"
     inkscape:label="Horns"
     sodipodi:insensitive="true"
     style="display:inline">
    <path
       transform="translate(0,-291.70831)"
       style="fill:#c22f34;fill-opacity:1;fill-rule:evenodd;stroke:none;stroke-width:0.02645833;stroke-linecap:butt;stroke-linejoin:miter;stroke-miterlimit:4;stroke-dasharray:none;stroke-opacity:1"
       d="m 1.3288225,293.78719 0.1726166,-0.11284 c 0.073999,-0.18614 0.3393782,-0.33377 0.4262005,-0.63286 -0.2170177,0.3498 -0.4150271,0.41447 -0.5988171,0.7457 z"
       id="path821"
       inkscape:connector-curvature="0"
       sodipodi:nodetypes="cccc" />
    <path
       transform="translate(0,-291.70831)"
       sodipodi:nodetypes="cccc"
       inkscape:connector-curvature="0"
       id="path823"
       d="m 1.5768694,293.6484 c 0.06246,-0.03 0.1131091,-0.0585 0.1755695,-0.0272 0.1032316,-0.16108 0.2828526,-0.25776 0.4490206,-0.67378 -0.329626,0.49653 -0.511678,0.48631 -0.6245901,0.70099 z"
       style="fill:#c22f34;fill-opacity:1;fill-rule:evenodd;stroke:none;stroke-width:0.02645833;stroke-linecap:butt;stroke-linejoin:miter;stroke-miterlimit:4;stroke-dasharray:none;stroke-opacity:1" />
  </g>
</svg>
